<svg width="32" height="32" viewBox="0 0 32 32" fill="none" xmlns="http://www.w3.org/2000/svg">
<path d="M20.7996 16.0001C20.7996 17.2732 20.2939 18.4941 19.3938 19.3943C18.4936 20.2944 17.2727 20.8001 15.9996 20.8001C14.7266 20.8001 13.5057 20.2944 12.6055 19.3943C11.7054 18.4941 11.1996 17.2732 11.1996 16.0001C11.1996 15.7265 11.2284 15.4593 11.278 15.2001H9.59965V21.5953C9.59965 22.0401 9.95965 22.4001 10.4044 22.4001H21.5964C21.8096 22.3997 22.0139 22.3147 22.1645 22.1639C22.3151 22.013 22.3996 21.8085 22.3996 21.5953V15.2001H20.7212C20.7708 15.4593 20.7996 15.7265 20.7996 16.0001ZM15.9996 19.2001C16.42 19.2 16.8362 19.1171 17.2245 18.9562C17.6128 18.7952 17.9656 18.5594 18.2627 18.2621C18.5599 17.9648 18.7955 17.6119 18.9563 17.2235C19.1171 16.8351 19.1998 16.4189 19.1996 15.9985C19.1995 15.5782 19.1166 15.162 18.9557 14.7737C18.7947 14.3854 18.5589 14.0326 18.2616 13.7355C17.9643 13.4383 17.6114 13.2026 17.223 13.0419C16.8346 12.8811 16.4184 12.7984 15.998 12.7985C15.1491 12.7987 14.3351 13.1362 13.735 13.7366C13.1349 14.337 12.7978 15.1512 12.798 16.0001C12.7983 16.849 13.1357 17.6631 13.7361 18.2632C14.3365 18.8633 15.1507 19.2003 15.9996 19.2001ZM19.8396 12.6401H21.758C21.8855 12.6401 22.0078 12.5896 22.098 12.4996C22.1883 12.4097 22.2392 12.2876 22.2396 12.1601V10.2417C22.2396 10.114 22.1889 9.99151 22.0986 9.90119C22.0083 9.81088 21.8858 9.76014 21.758 9.76014H19.8396C19.7119 9.76014 19.5894 9.81088 19.4991 9.90119C19.4088 9.99151 19.358 10.114 19.358 10.2417V12.1601C19.3596 12.4241 19.5756 12.6401 19.8396 12.6401ZM15.9996 0.640137C11.9259 0.640137 8.01905 2.25842 5.13849 5.13898C2.25793 8.01954 0.639648 11.9264 0.639648 16.0001C0.639648 20.0739 2.25793 23.9807 5.13849 26.8613C8.01905 29.7419 11.9259 31.3601 15.9996 31.3601C18.0168 31.3601 20.0141 30.9628 21.8777 30.1909C23.7412 29.419 25.4345 28.2876 26.8608 26.8613C28.2871 25.435 29.4185 23.7417 30.1904 21.8782C30.9623 20.0146 31.3596 18.0172 31.3596 16.0001C31.3596 13.983 30.9623 11.9857 30.1904 10.1221C29.4185 8.25856 28.2871 6.56528 26.8608 5.13898C25.4345 3.71267 23.7412 2.58126 21.8777 1.80935C20.0141 1.03743 18.0168 0.640137 15.9996 0.640137ZM23.9996 22.2225C23.9996 23.2001 23.1996 24.0001 22.222 24.0001H9.77725C8.79965 24.0001 7.99965 23.2001 7.99965 22.2225V9.77774C7.99965 8.80014 8.79965 8.00014 9.77725 8.00014H22.222C23.1996 8.00014 23.9996 8.80014 23.9996 9.77774V22.2225Z" fill="#58C4D9"/>
</svg>
