<svg width="18" height="18" viewBox="0 0 18 18" fill="none" xmlns="http://www.w3.org/2000/svg">
<path d="M1.215 4.47739H4.53375C4.89375 3.06407 5.41125 1.70729 6.08625 0.452261C4.01625 1.16457 2.295 2.6005 1.215 4.47739ZM3.9375 9C3.9375 8.23116 4.005 7.48493 4.095 6.73869H0.2925C0.1125 7.46231 0 8.21985 0 9C0 9.78015 0.1125 10.5377 0.2925 11.2613H4.095C4.005 10.5151 3.9375 9.76885 3.9375 9ZM1.215 13.5226C2.30156 15.4117 4.03196 16.8416 6.08625 17.5477C5.40723 16.2747 4.88585 14.923 4.53375 13.5226H1.215ZM9 0C8.06625 1.35678 7.335 2.86055 6.85125 4.47739H11.1488C10.665 2.86055 9.93375 1.35678 9 0ZM16.785 4.47739C15.6951 2.59115 13.9659 1.16231 11.9137 0.452261C12.5887 1.70729 13.1063 3.06407 13.4663 4.47739H16.785ZM9 18C9.93375 16.6432 10.665 15.1394 11.1488 13.5226H6.85125C7.335 15.1394 8.06625 16.6432 9 18ZM11.9137 17.5477C13.9659 16.8377 15.6951 15.4089 16.785 13.5226H13.4663C13.1141 14.923 12.5928 16.2747 11.9137 17.5477ZM17.7075 6.73869H13.905C13.995 7.48493 14.0625 8.23116 14.0625 9C14.0625 9.76885 13.995 10.5151 13.905 11.2613H17.7075C17.8875 10.5377 18 9.78015 18 9C18 8.21985 17.8875 7.46231 17.7075 6.73869ZM6.3675 6.73869C6.26625 7.47362 6.1875 8.23116 6.1875 9C6.1875 9.76885 6.26625 10.5151 6.3675 11.2613H11.6325C11.7338 10.5151 11.8125 9.76885 11.8125 9C11.8125 8.23116 11.7338 7.47362 11.6325 6.73869H6.3675Z" fill="black"/>
</svg>
