<svg width="32" height="32" viewBox="0 0 32 32" fill="none" xmlns="http://www.w3.org/2000/svg">
<path d="M15.9996 0.640137C7.51645 0.640137 0.639648 7.51694 0.639648 16.0001C0.639648 24.4833 7.51645 31.3601 15.9996 31.3601C24.4828 31.3601 31.3596 24.4833 31.3596 16.0001C31.3596 7.51694 24.4828 0.640137 15.9996 0.640137ZM12.2396 22.3665H9.12925V12.3569H12.2396V22.3665ZM10.6652 11.1281C9.68285 11.1281 9.04765 10.4321 9.04765 9.57134C9.04765 8.69294 9.70205 8.01774 10.7052 8.01774C11.7084 8.01774 12.3228 8.69294 12.342 9.57134C12.342 10.4321 11.7084 11.1281 10.6652 11.1281ZM23.5996 22.3665H20.4892V16.8193C20.4892 15.5281 20.038 14.6513 18.9132 14.6513C18.054 14.6513 17.5436 15.2449 17.318 15.8161C17.2348 16.0193 17.214 16.3073 17.214 16.5937V22.3649H14.102V15.5489C14.102 14.2993 14.062 13.2545 14.0204 12.3553H16.7228L16.8652 13.7457H16.9276C17.3372 13.0929 18.3404 12.1297 20.0188 12.1297C22.0652 12.1297 23.5996 13.5009 23.5996 16.4481V22.3665Z" fill="#58C4D9"/>
</svg>
