<svg width="44" height="39" viewBox="0 0 44 39" fill="none" xmlns="http://www.w3.org/2000/svg">
<path fill-rule="evenodd" clip-rule="evenodd" d="M14.1337 0C12.2074 0 10.4194 0.995699 9.41241 2.62922L0.816854 16.5732C-0.272285 18.3401 -0.272284 20.5654 0.816854 22.3323L9.41241 36.2763C10.4194 37.9098 12.2074 38.9055 14.1337 38.9055H28.308C30.1654 38.9055 31.899 37.9794 32.9248 36.4394L42.2129 22.4954C43.4415 20.651 43.4415 18.2545 42.2129 16.4101L32.9248 2.46612C31.899 0.92605 30.1654 0 28.308 0H14.1337ZM34.9166 5.50874C36.6473 9.64029 36.9934 13.944 36.1281 17.0427C35.2627 20.1413 30.1745 28.0601 22.2826 28.0601C12.4177 28.0601 11.2062 20.1413 11.2062 17.9034C11.2062 15.6655 12.4177 10.3289 18.9943 10.3289C25.4167 10.3289 25.4022 14.269 25.398 15.4157C25.3979 15.4432 25.3978 15.4691 25.3978 15.4933C25.3978 16.5262 24.8786 19.6249 21.9365 19.797C20.9097 19.8571 20.0871 19.8757 19.4572 19.8728C18.6697 19.8691 17.9559 20.5101 17.9559 21.2934C17.9559 21.8391 18.3085 22.3213 18.8474 22.4233C19.7862 22.6011 20.9836 22.7236 21.5903 22.7236C22.6287 22.7236 28.34 22.035 28.34 15.4933C28.34 8.9517 22.4557 7.23022 18.9943 7.23022C15.5329 7.23022 7.91792 9.64029 7.91792 18.4198C7.91792 27.1994 14.8407 31.8474 22.2826 31.8474C29.7245 31.8474 40.4548 25.4779 40.4548 13.7718L34.9166 5.50874Z" fill="#67D2E7"/>
</svg>
