<svg width="32" height="32" viewBox="0 0 32 32" fill="none" xmlns="http://www.w3.org/2000/svg">
<path d="M15.9996 0.640137C7.51645 0.640137 0.639648 7.51694 0.639648 16.0001C0.639648 24.4833 7.51645 31.3601 15.9996 31.3601C24.4828 31.3601 31.3596 24.4833 31.3596 16.0001C31.3596 7.51694 24.4828 0.640137 15.9996 0.640137ZM22.2476 13.2225C22.254 13.3537 22.2556 13.4849 22.2556 13.6129C22.2556 17.6129 19.214 22.2225 13.6492 22.2225C12.0049 22.2253 10.3948 21.753 9.01245 20.8625C9.24765 20.8913 9.48925 20.9025 9.73405 20.9025C11.1516 20.9025 12.4556 20.4209 13.4908 19.6081C12.86 19.5957 12.2487 19.3869 11.7422 19.0106C11.2357 18.6343 10.8592 18.1093 10.6652 17.5089C11.1183 17.5951 11.585 17.577 12.03 17.4561C11.3453 17.3177 10.7296 16.9467 10.2872 16.406C9.8448 15.8653 9.60302 15.1883 9.60285 14.4897V14.4529C10.0108 14.6785 10.478 14.8161 10.974 14.8321C10.3321 14.4048 9.8777 13.7484 9.70372 12.9971C9.52973 12.2459 9.64933 11.4565 10.038 10.7905C10.798 11.7249 11.7457 12.4893 12.8198 13.0342C13.8939 13.5791 15.0704 13.8924 16.2732 13.9537C16.1203 13.3046 16.1861 12.6232 16.4605 12.0153C16.7348 11.4075 17.2022 10.9073 17.7902 10.5926C18.3781 10.2778 19.0535 10.1661 19.7115 10.2748C20.3694 10.3835 20.973 10.7066 21.4284 11.1937C22.1055 11.0598 22.7548 10.8114 23.3484 10.4593C23.1228 11.1604 22.6503 11.7556 22.0188 12.1345C22.6186 12.0623 23.2042 11.9011 23.7564 11.6561C23.3508 12.264 22.8399 12.7944 22.2476 13.2225Z" fill="#58C4D9"/>
</svg>
