<svg width="32" height="32" viewBox="0 0 32 32" fill="none" xmlns="http://www.w3.org/2000/svg">
<path d="M18.5644 15.7329L14.9708 14.0561C14.6572 13.9105 14.3996 14.0737 14.3996 14.4209V17.5793C14.3996 17.9265 14.6572 18.0897 14.9708 17.9441L18.5628 16.2673C18.878 16.1201 18.878 15.8801 18.5644 15.7329ZM15.9996 0.640137C7.51645 0.640137 0.639648 7.51694 0.639648 16.0001C0.639648 24.4833 7.51645 31.3601 15.9996 31.3601C24.4828 31.3601 31.3596 24.4833 31.3596 16.0001C31.3596 7.51694 24.4828 0.640137 15.9996 0.640137ZM15.9996 22.2401C8.13725 22.2401 7.99965 21.5313 7.99965 16.0001C7.99965 10.4689 8.13725 9.76014 15.9996 9.76014C23.862 9.76014 23.9996 10.4689 23.9996 16.0001C23.9996 21.5313 23.862 22.2401 15.9996 22.2401Z" fill="#58C4D9"/>
</svg>
